<svg id="Logo_Cleys" data-name="Logo Cleys" xmlns="http://www.w3.org/2000/svg" width="141.8" height="46.6" viewBox="0 0 141.8 46.6">
  <g id="Group_2" data-name="Group 2" transform="translate(0)">
    <path id="Path_1" data-name="Path 1" d="M55.1,96.2,71,87.1V77.9l-15.9,9Z" transform="translate(-38.3 -49.6)" fill="#e55226"/>
    <g id="Group_1" data-name="Group 1">
      <path id="Path_2" data-name="Path 2" d="M54.7,67.7,59,65.3l11.7-6.6L54.5,49.6l-16,9Z" transform="translate(-38.3 -49.6)" fill="#e55226"/>
      <path id="Path_3" data-name="Path 3" d="M71,68.6V59.4l-15.9,9v9.2Z" transform="translate(-38.3 -49.6)" fill="#e55226"/>
      <path id="Path_4" data-name="Path 4" d="M53.8,86.6l-7.3-4.1h0V73.2l7.8,4.5V68.4l-16-9V87.2l16,9V86.9Z" transform="translate(-38.3 -49.6)" fill="#e55226"/>
    </g>
  </g>
  <g id="Group_4" data-name="Group 4" transform="translate(41.1 7.6)">
    <g id="Group_3" data-name="Group 3">
      <path id="Path_5" data-name="Path 5" d="M100,87.1a16.405,16.405,0,0,1-7.2,1.4c-7.7,0-13.4-5.4-13.4-15.4,0-9.5,5.8-15.9,14.3-15.9a14.454,14.454,0,0,1,6.5,1.3l-.9,3.2a11.723,11.723,0,0,0-5.5-1.3c-6.4,0-10.7,4.6-10.7,12.5,0,7.4,3.8,12.2,10.5,12.2a12.433,12.433,0,0,0,5.8-1.3Z" transform="translate(-79.4 -57.2)" fill="#020203"/>
      <path id="Path_6" data-name="Path 6" d="M104.5,57.7h3.6V84.8h11.7v3.3H104.6V57.7Z" transform="translate(-79.4 -57.2)" fill="#020203"/>
      <path id="Path_7" data-name="Path 7" d="M137.7,73.9H127.1v11H139v3.3H123.6V57.7h14.8V61H127.2v9.6h10.6v3.3Z" transform="translate(-79.4 -57.2)" fill="#020203"/>
      <path id="Path_8" data-name="Path 8" d="M149.6,88.1V75.2L141,57.7h4.1l3.8,8.4c1,2.3,1.9,4.2,2.7,6.3h.1a64.914,64.914,0,0,1,2.8-6.3l3.9-8.4h4l-9.1,17.5V88.1Z" transform="translate(-79.4 -57.2)" fill="#020203"/>
      <path id="Path_9" data-name="Path 9" d="M164.5,83.3a11.2,11.2,0,0,0,6.3,1.9c3.6,0,5.7-2.1,5.7-5.1,0-2.8-1.5-4.5-5.1-6-4.5-1.7-7.2-4.3-7.2-8.6,0-4.7,3.5-8.3,8.8-8.3a11.962,11.962,0,0,1,6,1.4l-1,3.2a9.432,9.432,0,0,0-5.1-1.4c-3.7,0-5.1,2.5-5.1,4.6,0,2.8,1.7,4.2,5.4,5.8,4.6,2,6.9,4.5,6.9,8.9,0,4.6-3.1,8.8-9.5,8.8a13.171,13.171,0,0,1-7-2Z" transform="translate(-79.4 -57.2)" fill="#020203"/>
    </g>
  </g>
</svg>
