<svg id="pay-option-paypal" xmlns="http://www.w3.org/2000/svg" width="26.667" height="20" viewBox="0 0 26.667 20">
  <path id="Path_13" data-name="Path 13" d="M23.253,0H3.413A3.427,3.427,0,0,0,0,3.441V16.559A3.427,3.427,0,0,0,3.413,20h19.84a3.427,3.427,0,0,0,3.413-3.441V3.441A3.427,3.427,0,0,0,23.253,0Z" fill="#0071c0"/>
  <path id="Path_14" data-name="Path 14" d="M5.4,0q-.013.089-.031.183a3.174,3.174,0,0,1-3.48,2.845H1a.433.433,0,0,0-.423.377L.13,6.381,0,7.224A.232.232,0,0,0,.225,7.5H1.787a.381.381,0,0,0,.371-.33l.015-.083.294-1.942.019-.107a.38.38,0,0,1,.371-.33h.234A2.777,2.777,0,0,0,6.136,2.215,2.189,2.189,0,0,0,5.823.343,1.5,1.5,0,0,0,5.4,0Z" transform="translate(11.474 7.392)" fill="#99c6e5"/>
  <path id="Path_15" data-name="Path 15" d="M4.4.148Q4.309.12,4.213.1t-.2-.039A4.7,4.7,0,0,0,3.238,0H.886A.362.362,0,0,0,.724.038.389.389,0,0,0,.515.33l-.5,3.3L0,3.725a.433.433,0,0,1,.423-.377H1.3A3.175,3.175,0,0,0,4.783.5C4.795.44,4.8.379,4.814.32A2.066,2.066,0,0,0,4.488.177L4.4.148Z" transform="translate(12.055 7.072)" fill="#cce2f2"/>
  <path id="Path_16" data-name="Path 16" d="M3.076,2.564a.388.388,0,0,1,.209-.292.363.363,0,0,1,.162-.038H5.8a4.7,4.7,0,0,1,.776.059q.1.017.2.039t.187.05l.089.029a2.1,2.1,0,0,1,.325.143,2.057,2.057,0,0,0-.407-1.8A2.91,2.91,0,0,0,4.679,0h-3a.435.435,0,0,0-.424.377L0,8.624a.265.265,0,0,0,.254.31H2.111l.465-3.072Z" transform="translate(9.493 4.839)" fill="#fff"/>
</svg>
