<svg id="pay-option-bancontact" xmlns="http://www.w3.org/2000/svg" width="26.667" height="20" viewBox="0 0 26.667 20">
  <path id="Path_10" data-name="Path 10" d="M3.413.417h19.84a3.011,3.011,0,0,1,3,3.024V16.559a3.011,3.011,0,0,1-3,3.024H3.413a3.011,3.011,0,0,1-3-3.024V3.441a3.011,3.011,0,0,1,3-3.024Z" fill="#fff" stroke="#e6e6e6" stroke-width="0.833"/>
  <g id="Group_44" data-name="Group 44">
    <path id="Path_11" data-name="Path 11" d="M0,2.377a.784.784,0,0,1,.779-.789H3.151L1.969,2.779H6.7L9.059,0h5.12L10.763,3.787a1.979,1.979,0,0,1-1.293.58H.77A.779.779,0,0,1,0,3.578Z" transform="translate(5.063 8.759)" fill="#00549d" fill-rule="evenodd"/>
    <path id="Path_12" data-name="Path 12" d="M0,2.373a.783.783,0,0,1,.769-.785H3.545L2.363,2.779h5.12L9.452,0h5.12l-3.44,4.161a1.892,1.892,0,0,1-1.281.6H.782A.784.784,0,0,1,0,3.979Z" transform="translate(21.555 11.588) rotate(180)" fill="#ffd800" fill-rule="evenodd"/>
  </g>
</svg>
