<svg id="pay-option-visa" xmlns="http://www.w3.org/2000/svg" width="26.667" height="20" viewBox="0 0 26.667 20">
  <path id="Path_21" data-name="Path 21" d="M23.333,0h-20A3.333,3.333,0,0,0,0,3.333V16.667A3.333,3.333,0,0,0,3.333,20h20a3.333,3.333,0,0,0,3.333-3.333V3.333A3.333,3.333,0,0,0,23.333,0Z" fill="#27337a"/>
  <path id="Path_22" data-name="Path 22" d="M7.758-3.4c-.009.7.6,1.085,1.061,1.316s.631.389.629.6c0,.325-.377.468-.726.473a2.47,2.47,0,0,1-1.245-.305L7.258-.257A3.55,3.55,0,0,0,8.605,0c1.273,0,2.106-.649,2.11-1.654,0-1.276-1.71-1.347-1.7-1.917,0-.173.164-.358.514-.4a2.218,2.218,0,0,1,1.195.216l.213-1.025A3.159,3.159,0,0,0,9.805-5C8.607-5,7.764-4.343,7.758-3.4Zm5.229-1.51a.553.553,0,0,0-.516.355L10.653-.075h1.272L12.178-.8h1.554l.147.722H15l-.978-4.836Zm.178,1.306.367,1.816H12.526ZM6.215-4.912l-1,4.836H6.425l1-4.836Zm-1.793,0L3.161-1.62l-.51-2.8a.57.57,0,0,0-.559-.493H.029L0-4.771a4.939,4.939,0,0,1,1.2.411.529.529,0,0,1,.288.425L2.45-.075H3.731L5.7-4.912Z" transform="translate(5.833 12.5)" fill="#fff"/>
</svg>
