<svg id="pay-option-mastercard" xmlns="http://www.w3.org/2000/svg" width="26.667" height="20" viewBox="0 0 26.667 20">
  <path id="Path_17" data-name="Path 17" d="M3.441.417H23.226A3.043,3.043,0,0,1,26.25,3.478V16.522a3.043,3.043,0,0,1-3.024,3.062H3.441A3.043,3.043,0,0,1,.417,16.522V3.478A3.043,3.043,0,0,1,3.441.417Z" fill="#fff" stroke="#e6e6e6" stroke-width="0.833"/>
  <path id="Path_18" data-name="Path 18" d="M4.3,8.7A4.325,4.325,0,0,0,8.6,4.348,4.325,4.325,0,0,0,4.3,0,4.325,4.325,0,0,0,0,4.348,4.325,4.325,0,0,0,4.3,8.7Z" transform="translate(6.452 5.652)" fill="#e7001a"/>
  <path id="Path_19" data-name="Path 19" d="M4.3,8.7A4.325,4.325,0,0,0,8.6,4.348,4.325,4.325,0,0,0,4.3,0,4.325,4.325,0,0,0,0,4.348,4.325,4.325,0,0,0,4.3,8.7Z" transform="translate(11.613 5.652)" fill="#f49b1c"/>
  <path id="Path_20" data-name="Path 20" d="M1.72,0a4.357,4.357,0,0,1,1.72,3.479A4.357,4.357,0,0,1,1.72,6.957,4.377,4.377,0,0,1,1.72,0Z" transform="translate(11.613 6.521)" fill="#e7001a" fill-rule="evenodd" opacity="0.3"/>
</svg>
