<svg xmlns="http://www.w3.org/2000/svg" width="12.502" height="13.697" viewBox="0 0 12.502 13.697">
  <path id="icon-angle-double-down" d="M5.918-.789a.469.469,0,0,0,.664,0l5.781-5.734a.469.469,0,0,0,0-.664l-.773-.773a.469.469,0,0,0-.664,0L6.25-3.332,1.574-7.961a.469.469,0,0,0-.664,0l-.773.773a.469.469,0,0,0,0,.664Zm.664-6.25,5.781-5.734a.469.469,0,0,0,0-.664l-.773-.773a.469.469,0,0,0-.664,0L6.25-9.582,1.574-14.211a.469.469,0,0,0-.664,0l-.773.773a.469.469,0,0,0,0,.664L5.918-7.039A.469.469,0,0,0,6.582-7.039Z" transform="translate(0.001 14.349)" fill="#d89e00"/>
</svg>
