<svg xmlns="http://www.w3.org/2000/svg" width="22" height="22" viewBox="0 0 22 22">
  <path id="icon-user" d="M11-17.875a4.816,4.816,0,0,1,4.813,4.813A4.816,4.816,0,0,1,11-8.25a4.816,4.816,0,0,1-4.812-4.812A4.816,4.816,0,0,1,11-17.875Zm5.5,13.75A4.132,4.132,0,0,1,20.625,0V1.375H1.375V0A4.132,4.132,0,0,1,5.5-4.125c3.652,0,2.892.688,5.5.688S12.843-4.125,16.5-4.125ZM11-19.25a6.189,6.189,0,0,0-6.187,6.188A6.189,6.189,0,0,0,11-6.875a6.189,6.189,0,0,0,6.188-6.187A6.189,6.189,0,0,0,11-19.25ZM16.5-5.5c-3.97,0-3.051.688-5.5.688S9.466-5.5,5.5-5.5A5.5,5.5,0,0,0,0,0V1.375A1.374,1.374,0,0,0,1.375,2.75h19.25A1.374,1.374,0,0,0,22,1.375V0A5.5,5.5,0,0,0,16.5-5.5Z" transform="translate(0 19.25)" fill="#fff"/>
</svg>
