<svg xmlns="http://www.w3.org/2000/svg" width="15.5" height="15.5" viewBox="0 0 15.5 15.5">
  <path id="icon-info-circle" d="M8-13.75A7.751,7.751,0,0,0,.25-6,7.75,7.75,0,0,0,8,1.75,7.75,7.75,0,0,0,15.75-6,7.751,7.751,0,0,0,8-13.75Zm0,14A6.246,6.246,0,0,1,1.75-6,6.248,6.248,0,0,1,8-12.25,6.248,6.248,0,0,1,14.25-6,6.246,6.246,0,0,1,8,.25ZM8-10.312A1.312,1.312,0,0,0,6.688-9,1.312,1.312,0,0,0,8-7.687,1.312,1.312,0,0,0,9.313-9,1.312,1.312,0,0,0,8-10.312ZM9.75-2.375v-.75A.375.375,0,0,0,9.375-3.5H9V-6.625A.375.375,0,0,0,8.625-7h-2a.375.375,0,0,0-.375.375v.75a.375.375,0,0,0,.375.375H7v2H6.625a.375.375,0,0,0-.375.375v.75A.375.375,0,0,0,6.625-2h2.75A.375.375,0,0,0,9.75-2.375Z" transform="translate(-0.25 13.75)" fill="#d89e00"/>
</svg>
