<svg xmlns="http://www.w3.org/2000/svg" width="41.656" height="41.656" viewBox="0 0 41.656 41.656">
  <path id="icon-check-circle" d="M42.328-16.125A20.828,20.828,0,0,0,21.5-36.953,20.828,20.828,0,0,0,.672-16.125,20.828,20.828,0,0,0,21.5,4.7,20.828,20.828,0,0,0,42.328-16.125ZM19.091-5.1a1.344,1.344,0,0,1-1.9,0L8.456-13.831a1.344,1.344,0,0,1,0-1.9l1.9-1.9a1.344,1.344,0,0,1,1.9,0l5.884,5.884,12.6-12.6a1.344,1.344,0,0,1,1.9,0l1.9,1.9a1.344,1.344,0,0,1,0,1.9Z" transform="translate(-0.672 36.953)" fill="#1ab750"/>
</svg>
