<svg xmlns="http://www.w3.org/2000/svg" width="581.453" height="481.854" viewBox="0 0 581.453 481.854">
  <g id="M_logo_dark" transform="translate(0 0.021)" opacity="0.032">
    <path id="Path_45" data-name="Path 45" d="M671.81,202.112Q642.423,166,587.757,166q-34.842,0-63.7,11.725a163.406,163.406,0,0,0-53.124,35.522q-16.076-23.435-38.952-35.341T380.019,166a169.826,169.826,0,0,0-52.611,8.068,192.643,192.643,0,0,0-49.528,24.9V169.023H119.73V647.687H310.108v-8.975q.166-15.653.393-31.352c.106-8.023.287-16.046.408-24.069,0-3.762,0-7.555.091-11.287,0-5.606,0-11.211.106-16.817q.181-16.938.393-33.86c0-2.508,0-5.016.106-7.555l.317-19.551V491.4l-1.753-1.043c-2.448-1.435-4.956-2.8-7.358-4.291a39.285,39.285,0,0,1-14.4-16.046,71.017,71.017,0,0,1-7.147-22.86c-.212-1.511-.287-3.022-.529-4.533V426.365c.287-7.555.619-15.019.937-22.543q.393-9.383.755-18.781.5-12.088,1.012-24.054c.332-7.555.68-15.034,1-22.543.347-8.023.665-16.031,1.012-24.054l1-22.543q.363-8.129.74-16.273a18.157,18.157,0,0,1,.211-2.07,7.631,7.631,0,0,1,3.264-.151,20.738,20.738,0,0,1,.468,4.533c.3,5.681.544,11.362.816,17.043q.5,10.259,1.012,20.534.483,9.64.982,19.279.529,10.38,1.027,20.791c.317,6.663.665,13.341,1,20.02s.665,13.6,1.012,20.292c.211,4.336.483,8.673.68,13.024a4.2,4.2,0,0,0,1.224,2.916,2.508,2.508,0,0,0,2.765.65,9.472,9.472,0,0,0,1.118-.529,3.022,3.022,0,0,0,1.738-2.81c0-2.418.242-4.835.363-7.252.287-5.59.589-11.181.861-16.771.287-5.847.529-11.695.8-17.542q.74-15.109,1.511-30.219l1-20.035,1-20.292q.5-10.259,1.012-20.534c0-1.148.2-2.312.3-3.49a5.137,5.137,0,0,1,3.369-.136,15.125,15.125,0,0,1,.212,1.511q.574,13.039,1.118,26.064l1,22.543q.514,11.377,1.012,22.785l1,22.8q.5,11.408,1.012,22.785c.287,6.6.6,13.191.891,19.793a9.277,9.277,0,0,0,2.463,5.621,1.511,1.511,0,0,0,2.236.136,7.207,7.207,0,0,0,2.9-5.288c.484-9.186,1.163-18.343,1.753-27.529.227-3.581.408-7.177.635-10.758.453-6.92.922-13.84,1.36-20.76.2-3.022.363-6.044.544-9.066.408-6.678.786-13.342,1.209-20.02.574-9.066,1.194-18.01,1.783-27.016.242-3.929.453-7.857.695-11.77.2-3.339.393-6.678.619-10.018a10.136,10.136,0,0,1,.3-1.707,5.242,5.242,0,0,1,3.369,0c0,1.042.166,2.025.2,3.022q.317,11.513.62,23.057l.5,17.043c.166,5.515.348,11.03.5,16.545s.348,11.362.514,17.043l.5,16.786.5,16.787.514,17.043c.091,2.841.287,5.681.272,8.522a4.382,4.382,0,0,0,2.418,3.808,1.813,1.813,0,0,0,1.42.212,4.125,4.125,0,0,0,2.886-2.871,9.454,9.454,0,0,0,.242-1.738c.408-5.923.786-11.846,1.194-17.753s.861-11.846,1.284-17.769c.212-2.75.393-5.5.574-8.25.574-8.416,1.118-16.847,1.707-25.263.574-8.174,1.194-16.348,1.768-24.507.423-5.923.8-11.846,1.194-17.769q.771-11.015,1.511-22.014a10.068,10.068,0,0,1,.257-1.239,5.41,5.41,0,0,1,3.249,0,8.312,8.312,0,0,1,.363,3.022q.363,10.577.71,21.047c.151,4.261.332,8.522.5,12.782q.363,9.383.74,18.781c.106,3.022.181,6.18.257,9.277.166,6.346.347,12.692.5,19.053s.317,12.359.393,18.554v17.043c0,5.681,0,11.377.106,17.073,0,7.766.2,15.548.166,23.314,0,5.182-.106,10.38-.408,15.547a58.776,58.776,0,0,1-3.369,17.421,38.574,38.574,0,0,1-10.652,15.85,68.218,68.218,0,0,1-12.208,8.763,3.022,3.022,0,0,0-1.768,3.022c0,4.095-.151,8.189-.166,12.284v28.36q0,23.208.181,46.416c0,4.442,0,8.869.106,13.311l.408,37.109c0,3.354,0,6.693.106,10.048,0,2.04,0,4.08.106,6.134H498.567c.091-3.112.151-6.225.242-9.323.151-5.651.332-11.3.5-16.953v-1.9a19.447,19.447,0,0,0-1.511-1.435q-10.864-9.594-21.742-19.144c-.725-.635-1.42-1.284-2.161-1.9a2.432,2.432,0,0,1-.922-2.055v-.257c-.151-6.346-.332-12.692-.423-19.038-.121-8.1-.151-16.182-.211-24.281-.076-8.96-.242-17.92-.181-26.88,0-9.912.287-19.823.5-29.735.136-6.437.272-12.873.529-19.295.347-8.34.816-16.62,1.239-25.021.2-3.9.393-7.812.665-11.71.423-6.044.907-12.087,1.405-18.207.363-4.427.74-8.839,1.209-13.251q1.133-10.652,2.433-21.259,1.027-8.159,2.3-16.273c3.1-19.793,7.056-39.375,13.6-58.367a129.312,129.312,0,0,1,9.73-22.181,58.929,58.929,0,0,1,6.678-9.64,26.743,26.743,0,0,1,6.9-5.923,4.323,4.323,0,0,0,.695-.7h3.128a7.455,7.455,0,0,0,1.163.559,10.818,10.818,0,0,1,6.285,5.56,25.426,25.426,0,0,1,2.478,7.66,46.013,46.013,0,0,1,.544,9.066c0,1.39,0,2.78-.076,4.17,0,12.087,0,24.009-.121,36.021-.076,14.1-.211,28.179-.317,42.306,0,6.618,0,13.236-.091,19.839q0,10.7-.106,21.41-.151,21.017-.317,42.019c0,6.784,0,13.6-.091,20.352q0,10.577-.121,21.153-.136,21-.317,42.019c0,6.693,0,13.4-.091,20.1q0,10.7-.106,21.41c0,7.041-.166,14.082-.212,21.153v14.626c.121,8.34.332,16.62.514,25.036v.287h169V305.566Q701.183,238.178,671.81,202.112Z" transform="translate(-119.73 -166.02)" fill="#231f20"/>
  </g>
</svg>
