<svg xmlns="http://www.w3.org/2000/svg" width="80.67" height="66.852" viewBox="0 0 80.67 66.852">
  <g id="M_logo_light" transform="translate(0 0.022)">
    <path id="Path_23" data-name="Path 23" d="M196.325,171.009Q192.248,166,184.663,166a23.271,23.271,0,0,0-8.838,1.627,22.671,22.671,0,0,0-7.37,4.928,14.859,14.859,0,0,0-5.4-4.9A15.383,15.383,0,0,0,155.842,166a23.562,23.562,0,0,0-7.3,1.119,26.728,26.728,0,0,0-6.872,3.455v-4.155H119.73v66.409h26.413v-1.245q.023-2.172.055-4.35c.015-1.113.04-2.226.057-3.339,0-.522,0-1.048.013-1.566,0-.778,0-1.555.015-2.333q.025-2.35.055-4.7c0-.348,0-.7.015-1.048l.044-2.713v-.392l-.243-.145c-.34-.2-.688-.388-1.021-.6a5.45,5.45,0,0,1-2-2.226,9.853,9.853,0,0,1-.992-3.172c-.029-.21-.04-.419-.073-.629v-2.256c.04-1.048.086-2.084.13-3.128q.054-1.3.1-2.606.069-1.677.14-3.337c.046-1.048.094-2.086.138-3.128.048-1.113.092-2.224.14-3.337l.138-3.128q.05-1.128.1-2.258a2.515,2.515,0,0,1,.029-.287,1.059,1.059,0,0,1,.453-.021,2.878,2.878,0,0,1,.065.629c.042.788.075,1.576.113,2.365q.069,1.423.14,2.849.067,1.337.136,2.675.073,1.44.143,2.884c.044.924.092,1.851.138,2.778s.092,1.887.14,2.815c.029.6.067,1.2.094,1.807a.583.583,0,0,0,.17.4.348.348,0,0,0,.384.09,1.314,1.314,0,0,0,.155-.073.419.419,0,0,0,.241-.39c0-.335.034-.671.05-1.006.04-.776.082-1.551.119-2.327.04-.811.073-1.623.111-2.434q.1-2.1.21-4.193l.138-2.78.138-2.815q.069-1.423.14-2.849c0-.159.027-.321.042-.484a.713.713,0,0,1,.467-.019,2.109,2.109,0,0,1,.029.21q.08,1.809.155,3.616l.138,3.128q.071,1.578.14,3.161l.138,3.163q.069,1.583.14,3.161c.04.916.084,1.83.124,2.746a1.287,1.287,0,0,0,.342.78.21.21,0,0,0,.31.019,1,1,0,0,0,.4-.734c.067-1.275.161-2.545.243-3.819.031-.5.057-1,.088-1.493.063-.96.128-1.92.189-2.88.027-.419.05-.839.075-1.258.057-.927.109-1.851.168-2.778.08-1.258.166-2.5.247-3.748.034-.545.063-1.09.1-1.633.027-.463.055-.927.086-1.39a1.409,1.409,0,0,1,.042-.237.727.727,0,0,1,.467,0c0,.145.023.281.027.419q.044,1.6.086,3.2l.069,2.365c.023.765.048,1.53.069,2.3s.048,1.576.071,2.365l.069,2.329.069,2.329.071,2.365c.013.394.04.788.038,1.182a.608.608,0,0,0,.335.528.252.252,0,0,0,.2.029.572.572,0,0,0,.4-.4,1.312,1.312,0,0,0,.034-.241c.057-.822.109-1.643.166-2.463s.119-1.643.178-2.465c.029-.382.055-.763.08-1.145.08-1.168.155-2.337.237-3.5.08-1.134.166-2.268.245-3.4.059-.822.111-1.643.166-2.465q.107-1.528.21-3.054a1.4,1.4,0,0,1,.036-.172.751.751,0,0,1,.451,0,1.153,1.153,0,0,1,.05.419q.05,1.467.1,2.92c.021.591.046,1.182.069,1.773q.05,1.3.1,2.606c.015.419.025.857.036,1.287.023.88.048,1.761.069,2.643s.044,1.715.055,2.574v2.365c0,.788,0,1.578.015,2.369,0,1.077.027,2.157.023,3.235,0,.719-.015,1.44-.057,2.157a8.154,8.154,0,0,1-.467,2.417,5.352,5.352,0,0,1-1.478,2.2,9.467,9.467,0,0,1-1.694,1.216.419.419,0,0,0-.245.419c0,.568-.021,1.136-.023,1.7v3.935q0,3.22.025,6.44c0,.616,0,1.23.015,1.847l.057,5.148c0,.465,0,.929.015,1.394,0,.283,0,.566.015.851h21.9c.013-.432.021-.864.034-1.293.021-.784.046-1.568.069-2.352v-.264a2.7,2.7,0,0,0-.21-.2q-1.507-1.331-3.017-2.656c-.1-.088-.2-.178-.3-.264a.338.338,0,0,1-.128-.285V225.5c-.021-.88-.046-1.761-.059-2.641-.017-1.124-.021-2.245-.029-3.369-.01-1.243-.034-2.486-.025-3.729,0-1.375.04-2.75.069-4.125.019-.893.038-1.786.073-2.677.048-1.157.113-2.306.172-3.471.027-.541.055-1.084.092-1.625.059-.839.126-1.677.195-2.526.05-.614.1-1.226.168-1.838q.157-1.478.337-2.949.143-1.132.319-2.258a47.054,47.054,0,0,1,1.887-8.1,17.94,17.94,0,0,1,1.35-3.077,8.176,8.176,0,0,1,.927-1.337,3.71,3.71,0,0,1,.958-.822.6.6,0,0,0,.1-.1h.434a1.035,1.035,0,0,0,.161.078,1.5,1.5,0,0,1,.872.771,3.528,3.528,0,0,1,.344,1.063,6.383,6.383,0,0,1,.075,1.258c0,.193,0,.386-.01.579,0,1.677,0,3.331-.017,5-.01,1.956-.029,3.91-.044,5.87,0,.918,0,1.836-.013,2.752q0,1.484-.015,2.97-.021,2.916-.044,5.83c0,.941,0,1.887-.013,2.824q0,1.467-.017,2.935-.019,2.914-.044,5.83c0,.929,0,1.859-.013,2.788q0,1.484-.015,2.97c0,.977-.023,1.954-.029,2.935v2.029c.017,1.157.046,2.306.071,3.474v.04H200.4V185.362Q200.4,176.013,196.325,171.009Z" transform="translate(-119.73 -166.02)" fill="#fff"/>
  </g>
</svg>
